<?xml version="1.0" encoding="UTF-8"?>
<svg id="Layer_1" xmlns="http://www.w3.org/2000/svg" xmlns:xlink="http://www.w3.org/1999/xlink" viewBox="0 0 128 128">
  <defs>
    <style>
      .cls-1, .cls-2, .cls-3 {
        fill: #787878;
      }

      .cls-1, .cls-4, .cls-5, .cls-3, .cls-6, .cls-7 {
        stroke-miterlimit: 10;
      }

      .cls-1, .cls-4, .cls-6 {
        stroke: #000;
      }

      .cls-1, .cls-5, .cls-3, .cls-6 {
        stroke-width: .1px;
      }

      .cls-4 {
        fill: #686868;
        stroke-width: .2px;
      }

      .cls-5, .cls-3 {
        stroke: #202020;
      }

      .cls-5, .cls-6, .cls-7 {
        fill: none;
      }

      .cls-8 {
        clip-path: url(#clippath-1);
      }

      .cls-9 {
        fill: #9a9a9a;
      }

      .cls-7 {
        stroke: #6e6e6e;
        stroke-linecap: round;
      }

      .cls-10 {
        fill: #585858;
      }

      .cls-11 {
        fill: #6e6e6e;
      }

      .cls-12 {
        clip-path: url(#clippath-2);
      }

      .cls-13 {
        fill: #393939;
      }

      .cls-14 {
        clip-path: url(#clippath);
      }
    </style>
    <clipPath id="clippath">
      <circle class="cls-1" cx="63.88" cy="39.16" r="4.99"/>
    </clipPath>
    <clipPath id="clippath-1">
      <circle class="cls-1" cx="60.81" cy="45.93" r="4.99"/>
    </clipPath>
    <clipPath id="clippath-2">
      <circle class="cls-3" cx="54.94" cy="40.5" r="4.99"/>
    </clipPath>
  </defs>
  <g>
    <g>
      <g>
        <path class="cls-11" d="M48.61,74.73c-1.37,4.75-2.95,9.31-4.72,13.72-2,5.04-4.25,9.72-6.75,14.06s-5.29,8.05-8.39,11.18c-1.48,1.46-3.1,2.52-4.86,3.17s-3.67.99-5.71.99c-3.17,0-5.67-1.19-7.47-3.55-.65-.99-1.37-1.91-2.16-2.77-.76-.85-1.37-1.91-1.78-3.13-.09-.4-.11-.79-.11-1.1,0-.34.2-.7.61-1.1,4.66-4.59,8.64-8.97,11.9-13.2,3.28-4.21,6.14-8.52,8.59-12.93,2.45-4.43,4.66-9.13,6.64-14.13,1.96-4.99,3.91-10.55,5.89-16.69,1.3-4.16,2.63-8.28,3.98-12.33s2.68-8.16,3.98-12.35c.58-1.62,1.08-3.31,1.53-5.02.45-1.73.88-3.4,1.3-5.04.16-.74.43-1.24.79-1.53.38-.29,1.01-.52,1.91-.67,2.27-.34,4.34-.16,6.19.54s3.62,1.75,5.35,3.15c3.85,3.1,7.11,6.57,9.81,10.41s4.86,8.1,6.5,12.78c.16.31.29.65.38.97.07.34.36.67.85.99,3.1-5.8,7.18-11.11,12.21-15.9,5.02-4.77,10.64-8.32,16.87-10.62.9-.31,1.75-.47,2.56-.47,1.39,0,2.56.36,3.51,1.1s1.87,1.55,2.77,2.45c.4.49.58.99.54,1.53s-.09,1.08-.18,1.66c-.31,2.29-.74,4.52-1.21,6.68-.49,2.18-1.08,4.32-1.73,6.46-1.64,5.87-3.31,11.7-5.04,17.41-1.71,5.74-3.22,11.54-4.52,17.43-1.15,4.9-2.02,9.78-2.59,14.6-.56,4.84-.65,9.78-.25,14.87.34,3.67.81,7.51,1.48,11.52.07.49.22.97.43,1.42s.38.92.54,1.42c.16.56.36,1.15.56,1.71.2.58.02,1.15-.56,1.73-.49.47-1.03.7-1.64.67-.63-.04-1.21-.16-1.8-.31-2.52-.65-4.84-1.71-6.93-3.19-2.09-1.46-3.89-3.24-5.4-5.26-1.51-2.05-2.68-4.3-3.49-6.77-.31-.88-.56-1.8-.74-2.7,0,0-.49-2.38-.49-4.9,0-3.94,1.93-9.47,3.78-15.43.02-.07.04-.16.09-.25.65-2.14,2.02-6.66,3.44-12.26.79-3.1,1.24-5.15,1.62-7.11.63-3.24,1.01-5.98,1.26-7.78.29-2.05.43-3.08.54-4.27.04-.43.13-1.42.31-2.77.07-.61.07-2.27-.09-2.5-.29-.43-1.1.13-1.66.34-4.72,1.62-7.49,4.3-7.49,4.3-7.4,7.13-11.07,15.77-11.07,15.77-1.87,4.39-2.54,7.65-3.15,8.41-.16-.04-.31-.09-.47-.09-.38-1.15.45-6.52-1.3-14.64-.67-3.15-1.19-6.55-3.24-9.99-.74-1.24-1.57-2.34-2.32-3.33-1.42-1.87-2.95-3.87-5.31-5.89-.88-.74-1.98-1.57-3.31-2.41-1.03,3.46-2.38,8.03-3.87,13.47-.29,1.06-1.21,4.52-2.43,9.31-2.68,10.48-2.47,10.98-3.94,16.19-.18.67-.38,1.33-.56,1.98Z"/>
        <path class="cls-13" d="M98.73,41.3c.16.22.16,1.89.09,2.5-.18,1.35-.27,2.34-.31,2.77-.11,1.19-.25,2.23-.54,4.27-.25,1.8-.63,4.54-1.26,7.78-.38,1.96-.83,4-1.62,7.11-1.42,5.6-2.79,10.12-3.44,12.26-3.44-2.83-8.43-6.01-15-7.6-.43-.11-.85-.2-1.28-.27.61-.76,1.28-4.03,3.15-8.41,0,0,3.67-8.64,11.07-15.77,0,0,2.77-2.68,7.49-4.3.56-.2,1.37-.76,1.66-.34Z"/>
        <path class="cls-11" d="M74.88,70.03c.16,0,.31.04.47.09-.09.11-.18.18-.27.16s-.16-.09-.2-.25Z"/>
        <path class="cls-13" d="M73.58,55.38c1.75,8.12.92,13.5,1.3,14.64-10.86-2.07-20.29,1.42-26.27,4.7.18-.65.38-1.3.56-1.98,1.46-5.22,1.26-5.71,3.94-16.19,1.21-4.79,2.14-8.25,2.43-9.31,1.48-5.44,2.83-10.01,3.87-13.47,1.33.83,2.43,1.66,3.31,2.41,2.36,2.02,3.89,4.03,5.31,5.89.74.99,1.57,2.09,2.32,3.33,2.05,3.44,2.56,6.84,3.24,9.99Z"/>
      </g>
      <path class="cls-7" d="M41.91,79.22c.65-.54,3.04-2.5,6.7-4.5,5.98-3.28,15.41-6.77,26.27-4.7.16,0,.31.04.47.09.43.07.85.16,1.28.27,6.57,1.6,11.56,4.77,15,7.6,1.91,1.57,3.35,3.06,4.3,4.12"/>
    </g>
    <path class="cls-10" d="M59.09,44.58c1.73.87,4.24,2.4,6.66,4.96.5.53,1.84,2,3.31,4.44,1.63,2.71,2.24,4.75,3.13,9.26,0,.02.54,2.73.37,5.26-.02.23-.58.05-1.71-.03,0,0-2.82-.3-6.22-.03,0,0-2.84.41-10.14,2.41,0,0,0,0,0,0-.06.02-.16.04,4.62-26.26Z"/>
    <path class="cls-10" d="M78.02,69.63c2.35-2.9,4.12-5.34,5.28-7.02,2.14-3.07,4.65-5.87,6.93-8.84.77-1.01,2.02-1.55,2.98-2.39.94-.82-5.08,19.27-3.53,23.73-2.07-1.47-3.18-2.11-5.36-3.13-1.85-.86-4.57-1.81-6.3-2.36Z"/>
    <g>
      <g>
        <circle class="cls-2" cx="63.88" cy="39.16" r="4.99"/>
        <g class="cls-14">
          <path class="cls-9" d="M65.14,34.07c-4.89-.24-9.35,2.84-10.91,7.47-.21.61.76.87.96.27,1.42-4.22,5.51-6.96,9.95-6.74.64.03.64-.97,0-1h0Z"/>
        </g>
        <circle class="cls-6" cx="63.88" cy="39.16" r="4.99"/>
      </g>
      <g>
        <circle class="cls-2" cx="60.81" cy="45.93" r="4.99"/>
        <g class="cls-8">
          <path class="cls-9" d="M56.05,45.79c.37-1.27.78-2.66,1.82-3.55.58-.5,1.34-.71,2.07-.86.86-.18,1.74-.23,2.62-.19.64.03.64-.97,0-1-1.76-.07-3.91.12-5.32,1.28-1.22,1-1.72,2.61-2.15,4.06-.18.62.78.88.96.27h0Z"/>
        </g>
        <circle class="cls-6" cx="60.81" cy="45.93" r="4.99"/>
      </g>
      <g>
        <circle class="cls-2" cx="54.94" cy="40.5" r="4.99"/>
        <g class="cls-12">
          <path class="cls-9" d="M51.13,41.33c-.11-1.68.56-3.32,1.77-4.48,1.43-1.38,3.46-1.77,5.37-1.39.63.12.9-.84.27-.96-2.23-.44-4.57,0-6.26,1.57-1.43,1.33-2.26,3.31-2.14,5.27.04.64,1.04.64,1,0h0Z"/>
        </g>
        <circle class="cls-5" cx="54.94" cy="40.5" r="4.99"/>
      </g>
    </g>
  </g>
  <polygon class="cls-4" points="58.89 37.46 51.44 33.18 54.46 26.96 46.68 20.87 51.71 10.16 60.81 15.84 58.89 26.43 63.52 30.14 58.89 37.46"/>
  <polygon class="cls-4" points="58.34 37.2 57.78 28.73 64.1 22.57 62.11 14.04 70.66 10.42 72.58 18.66 68.25 24.02 68.81 32.1 58.34 37.2"/>
</svg>